Format : AVI
Format/Info : Audio Video Interleave
File size : 1.37 GiB
Duration : 1h 46mn
Overall bit rate : 1 841 Kbps
Writing library : VirtualDub build 32842/release

Video
ID : 0
Format : MPEG-4 Visual
Format profile : Advanced Simple@L5
Format settings, BVOP : 2
Format settings, QPel : No
Format settings, GMC : No warppoints
Format settings, Matrix : Default (H.263)
Muxing mode : Packed bitstream
Codec ID : XVID
Codec ID/Hint : XviD
Duration : 1h 46mn
Bit rate : 1 702 Kbps
Width : 640 pixels
Height : 288 pixels
Display aspect ratio : 2.222
Frame rate : 29.000 fps
Color space : YUV
Chroma subsampling : 4:2:0
Bit depth : 8 bits
Scan type : Progressive
Compression mode : Lossy
Bits/(Pixel*Frame) : 0.318
Stream size : 1.27 GiB (92%)
Writing library : XviD 64

Audio
ID : 1
Format : MPEG Audio
Format version : Version 1
Format profile : Layer 3
Mode : Joint stereo
Mode extension : MS Stereo
Codec ID : 55
Codec ID/Hint : MP3
Duration : 1h 46mn
Bit rate mode : Constant
Bit rate : 128 Kbps
Channel(s) : 2 channels
Sampling rate : 44.1 KHz
Compression mode : Lossy
Stream size : 97.8 MiB (7%)
Alignment : Split accross interleaves
Interleave, duration : 34 ms (1.00 video frame)
Interleave, preload duration : 500 ms
Writing library : LAME3.98r
Encoding settings : -m j -V 4 -q 2 -lowpass 17 -b 128






 
http://www.imdb.com/title/tt1488555/








Users: (1,585 votes) 30 reviews | Critics: 73 reviews Metascore: 40/100 (based on 34 reviews from Metacritic.com)


A comedy in which a married father accidentally switches bodies with his best friend, leading to a series of wildly complex difficulties.

Director: David Dobkin
Writers: Jon Lucas, Scott Moore
Stars: Jason Bateman, Ryan Reynolds and Olivia Wilde

























Source Used


Video ERDNA ............Thanks

Audio IMAGiNE .............Thanks


Basically same filters as cam release but a few extra ones



Enjoy





Greetz to IMAGiNE,Flawl3ss,DiLLoN,BDK,NOiR,TOXiC,THC,Ez,Rx,Boobyblue,TaRiQ786















Currently looking for encoders/syncers if anything to offer contact me on dtrg@hush.ai
